<mxfile host="65bd71144e">
    <diagram id="hUVOVU6jRG6KGF_iUACn" name="Page-1">
        <mxGraphModel dx="3504" dy="656" grid="1" gridSize="10" guides="1" tooltips="1" connect="1" arrows="1" fold="1" page="1" pageScale="1" pageWidth="850" pageHeight="1100" math="0" shadow="0">
            <root>
                <mxCell id="0"/>
                <mxCell id="1" parent="0"/>
                <mxCell id="85" value="" style="edgeStyle=none;html=1;entryX=0;entryY=0.5;entryDx=0;entryDy=0;exitX=0.75;exitY=0;exitDx=0;exitDy=0;" edge="1" parent="1" source="87" target="120">
                    <mxGeometry relative="1" as="geometry">
                        <mxPoint x="-730" y="390.0000000000001" as="sourcePoint"/>
                        <mxPoint x="-520" y="385" as="targetPoint"/>
                        <Array as="points">
                            <mxPoint x="-760" y="296"/>
                        </Array>
                    </mxGeometry>
                </mxCell>
                <mxCell id="87" value="Project Idle" style="rounded=1;whiteSpace=wrap;html=1;" vertex="1" parent="1">
                    <mxGeometry x="-850" y="340" width="120" height="60" as="geometry"/>
                </mxCell>
                <mxCell id="88" style="edgeStyle=none;html=1;fontSize=12;startArrow=none;" edge="1" parent="1" source="89" target="87">
                    <mxGeometry relative="1" as="geometry">
                        <mxPoint x="-860" y="369.9999999999999" as="targetPoint"/>
                        <mxPoint x="-920" y="370" as="sourcePoint"/>
                    </mxGeometry>
                </mxCell>
                <mxCell id="90" style="edgeStyle=none;html=1;fontSize=11;fontColor=#000000;entryX=0;entryY=0.75;entryDx=0;entryDy=0;exitX=0.174;exitY=0.996;exitDx=0;exitDy=0;exitPerimeter=0;" edge="1" parent="1" source="91" target="119">
                    <mxGeometry relative="1" as="geometry">
                        <Array as="points">
                            <mxPoint x="-830" y="645"/>
                        </Array>
                        <mxPoint x="-500.8000000000002" y="402.8199999999997" as="targetPoint"/>
                    </mxGeometry>
                </mxCell>
                <mxCell id="127" style="edgeStyle=none;html=1;exitX=0.75;exitY=0;exitDx=0;exitDy=0;entryX=0.75;entryY=1;entryDx=0;entryDy=0;fontSize=12;" edge="1" parent="1" source="91" target="87">
                    <mxGeometry relative="1" as="geometry"/>
                </mxCell>
                <mxCell id="161" style="edgeStyle=none;html=1;fontSize=12;entryX=1;entryY=0.25;entryDx=0;entryDy=0;exitX=0.13;exitY=-0.028;exitDx=0;exitDy=0;exitPerimeter=0;" edge="1" parent="1" source="138" target="91">
                    <mxGeometry relative="1" as="geometry">
                        <mxPoint x="-530" y="450" as="targetPoint"/>
                        <Array as="points">
                            <mxPoint x="-295" y="495"/>
                        </Array>
                    </mxGeometry>
                </mxCell>
                <mxCell id="91" value="Project Playing" style="rounded=1;whiteSpace=wrap;html=1;fontSize=12;" vertex="1" parent="1">
                    <mxGeometry x="-850" y="480" width="120" height="60" as="geometry"/>
                </mxCell>
                <mxCell id="92" style="edgeStyle=none;html=1;fontSize=12;entryX=0.25;entryY=0;entryDx=0;entryDy=0;exitX=0.25;exitY=1;exitDx=0;exitDy=0;" edge="1" parent="1" source="87" target="91">
                    <mxGeometry relative="1" as="geometry">
                        <mxPoint x="-790" y="520" as="sourcePoint"/>
                        <Array as="points"/>
                    </mxGeometry>
                </mxCell>
                <mxCell id="93" value="&lt;b&gt;Play&lt;/b&gt;" style="text;html=1;align=center;verticalAlign=middle;resizable=0;points=[];autosize=1;strokeColor=none;fillColor=none;" vertex="1" parent="1">
                    <mxGeometry x="-860" y="430" width="40" height="20" as="geometry"/>
                </mxCell>
                <mxCell id="97" value="&lt;b&gt;Time Today Double Left Click&lt;/b&gt;" style="text;html=1;strokeColor=none;fillColor=none;align=center;verticalAlign=middle;whiteSpace=wrap;rounded=0;" vertex="1" parent="1">
                    <mxGeometry x="-756" y="272" width="182" height="30" as="geometry"/>
                </mxCell>
                <mxCell id="99" value="&lt;div&gt;&lt;b&gt;&lt;font style=&quot;font-size: 12px&quot;&gt;Save Valid Time Today&lt;/font&gt;&lt;/b&gt;&lt;/div&gt;&lt;span style=&quot;font-size: 11px&quot;&gt;&lt;div&gt;&lt;span&gt;/secondsToday = input&lt;/span&gt;&lt;/div&gt;&lt;/span&gt;" style="text;html=1;strokeColor=none;fillColor=none;align=center;verticalAlign=middle;whiteSpace=wrap;rounded=0;" vertex="1" parent="1">
                    <mxGeometry x="-694" y="177" width="140" height="30" as="geometry"/>
                </mxCell>
                <mxCell id="100" value="&lt;b&gt;Time Today Right Click&lt;/b&gt;" style="text;html=1;strokeColor=none;fillColor=none;align=center;verticalAlign=middle;whiteSpace=wrap;rounded=0;" vertex="1" parent="1">
                    <mxGeometry x="-825" y="644" width="170" height="30" as="geometry"/>
                </mxCell>
                <mxCell id="109" value="&lt;div&gt;&lt;b&gt;&lt;font style=&quot;font-size: 12px&quot;&gt;Save Empty Time Today&lt;/font&gt;&lt;/b&gt;&lt;/div&gt;&lt;div&gt;&lt;span style=&quot;font-size: 11px&quot;&gt;&lt;/span&gt;&lt;/div&gt;&lt;span style=&quot;font-size: 11px&quot;&gt;&lt;div&gt;&lt;span&gt;/secondsToday = 0&amp;nbsp;&lt;/span&gt;&lt;/div&gt;&lt;/span&gt;" style="text;html=1;strokeColor=none;fillColor=none;align=center;verticalAlign=middle;whiteSpace=wrap;rounded=0;" vertex="1" parent="1">
                    <mxGeometry x="-734" y="130" width="220" height="30" as="geometry"/>
                </mxCell>
                <mxCell id="112" value="&lt;div&gt;&lt;font face=&quot;helvetica&quot; style=&quot;font-size: 12px&quot;&gt;Cancel&lt;/font&gt;&lt;/div&gt;" style="text;html=1;strokeColor=none;fillColor=none;align=center;verticalAlign=middle;whiteSpace=wrap;rounded=0;fontStyle=1" vertex="1" parent="1">
                    <mxGeometry x="-659" y="500" width="60" height="20" as="geometry"/>
                </mxCell>
                <mxCell id="113" value="&lt;div&gt;&lt;b&gt;&lt;font style=&quot;font-size: 12px&quot;&gt;Save Valid Quota Today&lt;/font&gt;&lt;/b&gt;&lt;/div&gt;&lt;div&gt;[project playing]&lt;b&gt;&lt;font style=&quot;font-size: 12px&quot;&gt;&lt;br&gt;&lt;/font&gt;&lt;/b&gt;&lt;/div&gt;&lt;span style=&quot;font-size: 11px&quot;&gt;&lt;div&gt;&lt;span&gt;/quotaToday = input&lt;/span&gt;&lt;/div&gt;&lt;/span&gt;" style="text;html=1;strokeColor=none;fillColor=none;align=center;verticalAlign=middle;whiteSpace=wrap;rounded=0;" vertex="1" parent="1">
                    <mxGeometry x="-708" y="591" width="159.5" height="33" as="geometry"/>
                </mxCell>
                <mxCell id="114" value="&lt;div&gt;&lt;b&gt;&lt;font style=&quot;font-size: 12px&quot;&gt;Save Empty Quota Today&lt;/font&gt;&lt;/b&gt;&lt;/div&gt;&lt;span style=&quot;font-size: 11px&quot;&gt;&lt;div&gt;&lt;span style=&quot;font-size: 12px&quot;&gt;[project playing]&lt;/span&gt;&lt;span&gt;&lt;br&gt;&lt;/span&gt;&lt;/div&gt;&lt;div&gt;&lt;span&gt;/quotaToday = 0&lt;/span&gt;&lt;/div&gt;&lt;/span&gt;" style="text;html=1;strokeColor=none;fillColor=none;align=center;verticalAlign=middle;whiteSpace=wrap;rounded=0;" vertex="1" parent="1">
                    <mxGeometry x="-703.25" y="532" width="150" height="30" as="geometry"/>
                </mxCell>
                <mxCell id="115" value="&lt;div&gt;&lt;b&gt;&lt;font style=&quot;font-size: 12px&quot;&gt;Save Invalid Time Today&lt;/font&gt;&lt;/b&gt;&lt;/div&gt;&lt;span style=&quot;font-size: 11px&quot;&gt;&lt;br&gt;&lt;/span&gt;" style="text;html=1;strokeColor=none;fillColor=none;align=center;verticalAlign=middle;whiteSpace=wrap;rounded=0;" vertex="1" parent="1">
                    <mxGeometry x="-709" y="220" width="180" height="30" as="geometry"/>
                </mxCell>
                <mxCell id="117" value="&lt;b&gt;&lt;font style=&quot;font-size: 21px&quot;&gt;Tirei o match da expressao regular pq ocupa muito &lt;br&gt;espaço e podemos indicar na descrição o que significa &lt;br&gt;ser válido ou não. Acrecentei as ligaçoes do project playing&lt;/font&gt;&lt;/b&gt;" style="text;html=1;align=center;verticalAlign=middle;resizable=0;points=[];autosize=1;strokeColor=none;fillColor=none;" vertex="1" parent="1">
                    <mxGeometry x="-900" y="760" width="610" height="60" as="geometry"/>
                </mxCell>
                <mxCell id="135" style="edgeStyle=none;html=1;exitX=0;exitY=0.5;exitDx=0;exitDy=0;fontSize=12;entryX=0.337;entryY=1.029;entryDx=0;entryDy=0;entryPerimeter=0;" edge="1" parent="1" source="119" target="91">
                    <mxGeometry relative="1" as="geometry">
                        <mxPoint x="-730" y="530" as="targetPoint"/>
                        <Array as="points">
                            <mxPoint x="-810" y="630"/>
                        </Array>
                    </mxGeometry>
                </mxCell>
                <mxCell id="140" style="edgeStyle=none;html=1;exitX=1;exitY=0.5;exitDx=0;exitDy=0;entryX=0;entryY=0.5;entryDx=0;entryDy=0;fontSize=12;" edge="1" parent="1" target="138">
                    <mxGeometry relative="1" as="geometry">
                        <mxPoint x="-496" y="630" as="sourcePoint"/>
                    </mxGeometry>
                </mxCell>
                <mxCell id="141" style="edgeStyle=none;html=1;exitX=0.25;exitY=0;exitDx=0;exitDy=0;fontSize=12;entryX=0.993;entryY=0.66;entryDx=0;entryDy=0;entryPerimeter=0;" edge="1" parent="1" source="119" target="91">
                    <mxGeometry relative="1" as="geometry">
                        <mxPoint x="-720" y="525" as="targetPoint"/>
                        <Array as="points">
                            <mxPoint x="-505" y="520"/>
                        </Array>
                    </mxGeometry>
                </mxCell>
                <mxCell id="142" style="edgeStyle=none;html=1;exitX=0.122;exitY=-0.012;exitDx=0;exitDy=0;entryX=0.5;entryY=1;entryDx=0;entryDy=0;fontSize=12;exitPerimeter=0;" edge="1" parent="1" source="119" target="91">
                    <mxGeometry relative="1" as="geometry">
                        <Array as="points">
                            <mxPoint x="-520" y="570"/>
                            <mxPoint x="-790" y="570"/>
                        </Array>
                    </mxGeometry>
                </mxCell>
                <mxCell id="119" value="Quota Today Window" style="rounded=1;whiteSpace=wrap;html=1;" vertex="1" parent="1">
                    <mxGeometry x="-535" y="600" width="120" height="60" as="geometry"/>
                </mxCell>
                <mxCell id="164" style="edgeStyle=none;html=1;exitX=0.25;exitY=0;exitDx=0;exitDy=0;entryX=0.5;entryY=0;entryDx=0;entryDy=0;fontSize=12;" edge="1" parent="1" source="120" target="87">
                    <mxGeometry relative="1" as="geometry">
                        <Array as="points">
                            <mxPoint x="-524" y="240"/>
                            <mxPoint x="-790" y="240"/>
                        </Array>
                    </mxGeometry>
                </mxCell>
                <mxCell id="165" style="edgeStyle=none;html=1;exitX=0.415;exitY=0.004;exitDx=0;exitDy=0;entryX=0.334;entryY=-0.003;entryDx=0;entryDy=0;fontSize=12;exitPerimeter=0;entryPerimeter=0;" edge="1" parent="1" source="120" target="87">
                    <mxGeometry relative="1" as="geometry">
                        <Array as="points">
                            <mxPoint x="-504" y="210"/>
                            <mxPoint x="-810" y="210"/>
                        </Array>
                    </mxGeometry>
                </mxCell>
                <mxCell id="167" style="edgeStyle=none;html=1;exitX=0.593;exitY=0.015;exitDx=0;exitDy=0;entryX=0.16;entryY=-0.014;entryDx=0;entryDy=0;entryPerimeter=0;fontSize=12;exitPerimeter=0;" edge="1" parent="1" source="120" target="87">
                    <mxGeometry relative="1" as="geometry">
                        <Array as="points">
                            <mxPoint x="-483" y="160"/>
                            <mxPoint x="-831" y="160"/>
                        </Array>
                    </mxGeometry>
                </mxCell>
                <mxCell id="120" value="Time Today Window" style="rounded=1;whiteSpace=wrap;html=1;" vertex="1" parent="1">
                    <mxGeometry x="-554" y="266" width="120" height="60" as="geometry"/>
                </mxCell>
                <mxCell id="128" value="&lt;b&gt;Pause&lt;/b&gt;" style="text;html=1;align=center;verticalAlign=middle;resizable=0;points=[];autosize=1;strokeColor=none;fillColor=none;" vertex="1" parent="1">
                    <mxGeometry x="-806" y="430" width="50" height="20" as="geometry"/>
                </mxCell>
                <mxCell id="89" value="" style="ellipse;fillColor=#000000;strokeColor=none;" vertex="1" parent="1">
                    <mxGeometry x="-930" y="360" width="20" height="20" as="geometry"/>
                </mxCell>
                <mxCell id="134" value="" style="edgeStyle=none;html=1;fontSize=12;endArrow=none;" edge="1" parent="1" target="89">
                    <mxGeometry relative="1" as="geometry">
                        <mxPoint x="-850" y="370" as="targetPoint"/>
                        <mxPoint x="-920" y="370" as="sourcePoint"/>
                    </mxGeometry>
                </mxCell>
                <mxCell id="156" style="edgeStyle=none;html=1;exitX=0.25;exitY=0;exitDx=0;exitDy=0;entryX=1;entryY=0.75;entryDx=0;entryDy=0;fontSize=12;" edge="1" parent="1" source="138" target="87">
                    <mxGeometry relative="1" as="geometry">
                        <Array as="points">
                            <mxPoint x="-281" y="385"/>
                        </Array>
                    </mxGeometry>
                </mxCell>
                <mxCell id="138" value="Quota Today Error Window" style="rounded=1;whiteSpace=wrap;html=1;" vertex="1" parent="1">
                    <mxGeometry x="-311" y="600" width="120" height="60" as="geometry"/>
                </mxCell>
                <mxCell id="139" value="&lt;div&gt;&lt;b&gt;&lt;font style=&quot;font-size: 12px&quot;&gt;Save Invalid&amp;nbsp;&lt;/font&gt;&lt;/b&gt;&lt;/div&gt;&lt;div&gt;&lt;b&gt;&lt;font style=&quot;font-size: 12px&quot;&gt;Quota Today&lt;/font&gt;&lt;/b&gt;&lt;/div&gt;" style="text;html=1;strokeColor=none;fillColor=none;align=center;verticalAlign=middle;whiteSpace=wrap;rounded=0;" vertex="1" parent="1">
                    <mxGeometry x="-407" y="637" width="90" height="30" as="geometry"/>
                </mxCell>
                <mxCell id="162" value="&lt;b&gt;Press Ok&lt;/b&gt;&lt;br&gt;[project playing]" style="text;html=1;strokeColor=none;fillColor=none;align=right;verticalAlign=middle;whiteSpace=wrap;rounded=0;" vertex="1" parent="1">
                    <mxGeometry x="-386" y="550" width="86" height="30" as="geometry"/>
                </mxCell>
                <mxCell id="163" value="&lt;b&gt;Press Ok&lt;/b&gt;&lt;br&gt;[project NOT playing]" style="text;html=1;strokeColor=none;fillColor=none;align=left;verticalAlign=middle;whiteSpace=wrap;rounded=0;" vertex="1" parent="1">
                    <mxGeometry x="-274" y="550" width="120" height="30" as="geometry"/>
                </mxCell>
            </root>
        </mxGraphModel>
    </diagram>
</mxfile>